<svg width="32" height="32" viewBox="0 0 32 32" fill="none" xmlns="http://www.w3.org/2000/svg">
<rect width="32" height="32" rx="16" fill="black"/>
<g clip-path="url(#clip0_38_250)">
<mask id="mask0_38_250" style="mask-type:luminance" maskUnits="userSpaceOnUse" x="4" y="12" width="24" height="8">
<path d="M28 12.6318H4V19.368H28V12.6318Z" fill="white"/>
</mask>
<g mask="url(#mask0_38_250)">
<path d="M26.9109 12.7934L24.6924 17.2505L25.0353 17.916L26.5882 14.7497C26.5969 14.7378 26.6086 14.7285 26.6221 14.7228C26.6356 14.7171 26.6504 14.7152 26.6649 14.7172C26.6794 14.7193 26.6931 14.7253 26.7045 14.7346C26.7158 14.7438 26.7245 14.756 26.7294 14.7698L27.3345 19.0858C27.3443 19.1642 27.3826 19.2363 27.4421 19.2883C27.5016 19.3404 27.5781 19.3688 27.6572 19.3681C27.7031 19.3685 27.7487 19.359 27.7907 19.3403C27.8328 19.3217 27.8703 19.2942 27.9009 19.2598C27.9314 19.2255 27.9543 19.185 27.9679 19.141C27.9815 19.0971 27.9856 19.0508 27.9798 19.0051L27.0924 12.8135C27.0863 12.7954 27.0751 12.7794 27.0601 12.7674C27.0452 12.7554 27.0271 12.7479 27.0081 12.7457C26.9891 12.7436 26.9698 12.747 26.9526 12.7554C26.9354 12.7638 26.9209 12.777 26.9109 12.7934Z" fill="white"/>
<path d="M24.3496 19.3277L24.5513 18.9042L24.1681 18.037L21.5664 12.7933C21.558 12.7739 21.5438 12.7576 21.5257 12.7468C21.5076 12.7359 21.4866 12.731 21.4656 12.7328C21.4456 12.7365 21.4271 12.7462 21.4127 12.7606C21.3983 12.775 21.3886 12.7934 21.3849 12.8134L20.4975 19.005C20.4922 19.0474 20.4953 19.0904 20.5066 19.1316C20.518 19.1728 20.5373 19.2113 20.5635 19.245C20.5897 19.2787 20.6223 19.3069 20.6594 19.3281C20.6966 19.3492 20.7375 19.3628 20.7799 19.3681C20.8222 19.3734 20.8652 19.3703 20.9064 19.3589C20.9476 19.3476 20.9861 19.3283 21.0198 19.3021C21.0536 19.2758 21.0818 19.2432 21.1029 19.2061C21.124 19.169 21.1376 19.1281 21.1429 19.0857L21.7278 14.7294C21.7327 14.7156 21.7413 14.7034 21.7527 14.6941C21.7641 14.6849 21.7778 14.6789 21.7923 14.6768C21.8068 14.6747 21.8216 14.6767 21.8351 14.6824C21.8486 14.6881 21.8603 14.6974 21.8689 14.7092L24.1278 19.2874C24.1385 19.3094 24.1547 19.3283 24.1749 19.3421C24.1951 19.356 24.2186 19.3644 24.243 19.3664C24.2674 19.3684 24.292 19.3641 24.3142 19.3538C24.3364 19.3434 24.3556 19.3275 24.3698 19.3076" fill="white"/>
<path d="M15.6773 19.0253V15.7379C15.6773 15.6976 12.7731 12.8539 12.7731 12.8539C12.742 12.8189 12.7042 12.7907 12.6619 12.771C12.6195 12.7512 12.5736 12.7403 12.5269 12.7389C12.4802 12.7375 12.4337 12.7457 12.3903 12.763C12.3469 12.7802 12.3074 12.8062 12.2744 12.8392C12.2413 12.8722 12.2154 12.9117 12.1982 12.9551C12.1809 12.9985 12.1727 13.045 12.1741 13.0917C12.1755 13.1384 12.1864 13.1843 12.2061 13.2267C12.2259 13.269 12.2541 13.3069 12.2891 13.3379L15.0117 16.0203V19.0455C15.0302 19.1198 15.073 19.1858 15.1333 19.233C15.1936 19.2802 15.2679 19.3058 15.3445 19.3058C15.4211 19.3058 15.4955 19.2802 15.5558 19.233C15.6161 19.1858 15.6589 19.1198 15.6773 19.0455" fill="white"/>
<path d="M16.2824 15.1529L18.2387 13.1966C18.2798 13.1299 18.2969 13.051 18.2869 12.9732C18.277 12.8954 18.2407 12.8234 18.1841 12.7691C18.1274 12.7149 18.0539 12.6817 17.9758 12.6751C17.8976 12.6684 17.8196 12.6888 17.7546 12.7328L15.7983 14.6891L16.2824 15.1529Z" fill="white"/>
<path d="M7.06553 12.7329C7.03194 12.7331 6.99908 12.7427 6.97059 12.7605C6.94211 12.7783 6.91912 12.8036 6.90419 12.8337L4.04032 18.8841C4.02444 18.9598 4.03463 19.0387 4.06922 19.1079C4.10382 19.1771 4.16079 19.2325 4.23089 19.2652C4.30098 19.2979 4.38008 19.306 4.45533 19.2881C4.53057 19.2701 4.59755 19.2273 4.64537 19.1665L5.53276 17.2909L7.06553 14.064L7.44873 13.2572L7.24705 12.8337C7.23074 12.8004 7.20459 12.7728 7.17213 12.7548C7.13968 12.7367 7.10247 12.7291 7.06553 12.7329Z" fill="white"/>
<path d="M7.50922 15.0119L8.59829 17.3514L9.46552 19.1665C9.50296 19.2467 9.57074 19.3088 9.65395 19.3391C9.73716 19.3693 9.82898 19.3653 9.90922 19.3279C9.98945 19.2904 10.0515 19.2226 10.0818 19.1394C10.112 19.0562 10.108 18.9644 10.0706 18.8842L7.95291 14.3262L7.50922 15.0119Z" fill="white"/>
</g>
</g>
<defs>
<clipPath id="clip0_38_250">
<rect width="24" height="6.73613" fill="white" transform="translate(4 12.6318)"/>
</clipPath>
</defs>
</svg>
