<svg width="32" height="32" viewBox="0 0 32 32" fill="none" xmlns="http://www.w3.org/2000/svg">
<circle cx="16" cy="16" r="16" fill="black"/>
<circle cx="16.0005" cy="16" r="13.3503" fill="white"/>
<path fill-rule="evenodd" clip-rule="evenodd" d="M16.025 30.2906C23.9321 30.2906 30.3422 23.8806 30.3422 15.9734C30.3422 8.06628 23.9321 1.65625 16.025 1.65625C8.11779 1.65625 1.70776 8.06628 1.70776 15.9734C1.70776 23.8806 8.11779 30.2906 16.025 30.2906ZM14.8599 15.8307L16.6438 12.7005C16.8365 12.3627 16.5915 11.9417 16.2038 11.9393H15.1215C14.9408 11.9393 14.7743 11.8442 14.6839 11.6872L13.9418 10.4051C13.7467 10.0674 13.9917 9.64396 14.3818 9.64396L20.1499 9.65585C20.54 9.65823 20.7826 10.0769 20.5899 10.4146L16.4821 17.6146C16.2871 17.9548 15.7971 17.9548 15.602 17.617L14.8599 16.3349C14.7719 16.1803 14.7695 15.9877 14.8599 15.8307ZM23.6904 9.66545C23.5072 9.66545 23.3383 9.76297 23.248 9.92233L16.4999 21.7558C16.3072 22.096 15.8172 22.0984 15.6198 21.7582L10.9364 13.6686H10.7056L9.64478 15.5263C9.5544 15.6833 9.55677 15.876 9.64478 16.0329L15.6293 26.3656C15.8244 26.7033 16.3144 26.7033 16.5094 26.3632L25.6004 10.429C25.7931 10.0912 25.5504 9.67258 25.1604 9.6702L23.6904 9.66545ZM6.92696 9.64388H7.8784H8.8227C9.20327 9.64388 9.43875 10.0554 9.24847 10.3836L8.77513 11.1947V11.2042L8.30179 12.0153C8.1115 12.3412 7.64054 12.3412 7.45025 12.0153L6.97453 11.2042V11.1971L6.50119 10.3836C6.3109 10.0554 6.54876 9.64388 6.92696 9.64388Z" fill="black"/>
</svg>
