<svg width="40" height="40" viewBox="0 0 40 40" fill="none" xmlns="http://www.w3.org/2000/svg">
<circle cx="20" cy="20" r="20" fill="url(#paint0_linear_104_4294)"/>
<circle cx="20.0004" cy="20.0004" r="16.6879" fill="white"/>
<path fill-rule="evenodd" clip-rule="evenodd" d="M20.0313 37.8633C29.9152 37.8633 37.9278 29.8508 37.9278 19.9668C37.9278 10.0828 29.9152 2.07031 20.0313 2.07031C10.1473 2.07031 2.13477 10.0828 2.13477 19.9668C2.13477 29.8508 10.1473 37.8633 20.0313 37.8633ZM18.5749 19.7881L20.8049 15.8753C21.0457 15.4531 20.7395 14.9268 20.2548 14.9239H18.902C18.676 14.9239 18.4679 14.8049 18.3549 14.6087L17.4273 13.0061C17.1835 12.5839 17.4897 12.0547 17.9773 12.0547L25.1874 12.0696C25.675 12.0725 25.9783 12.5958 25.7375 13.018L20.6027 22.018C20.3589 22.4432 19.7464 22.4432 19.5026 22.021L18.5749 20.4184C18.4649 20.2252 18.462 19.9843 18.5749 19.7881ZM29.6132 12.082C29.3842 12.082 29.1731 12.2039 29.0601 12.4031L20.625 27.195C20.3842 27.6202 19.7717 27.6232 19.5249 27.198L13.6706 17.086H13.3822L12.0562 19.4081C11.9432 19.6043 11.9462 19.8452 12.0562 20.0414L19.5368 32.9572C19.7806 33.3794 20.3931 33.3794 20.6369 32.9542L32.0007 13.0364C32.2415 12.6142 31.9382 12.091 31.4506 12.088L29.6132 12.082ZM8.65881 12.0547H9.84811H11.0285C11.5042 12.0547 11.7986 12.5691 11.5607 12.9794L10.969 13.9932V14.0051L10.3773 15.019C10.1395 15.4263 9.55079 15.4263 9.31293 15.019L8.71828 14.0051V13.9962L8.1266 12.9794C7.88874 12.5691 8.18607 12.0547 8.65881 12.0547Z" fill="black"/>
<defs>
<linearGradient id="paint0_linear_104_4294" x1="38.9995" y1="1.09954" x2="-0.000158482" y2="39.9998" gradientUnits="userSpaceOnUse">
<stop stop-color="#F9623B"/>
<stop offset="1" stop-color="#496CFF"/>
</linearGradient>
</defs>
</svg>
